<?xml version="1.0" encoding="UTF-8"?>
<svg width="752pt" height="752pt" version="1.1" viewBox="0 0 752 752" xmlns="http://www.w3.org/2000/svg">
 <path d="m467.36 257.89c-12.977 0-23.488 10.562-23.488 23.535v80.367l-167.08-96.469c-1.6094-0.94531-3.4102-1.4219-5.2109-1.4219s-3.5977 0.47266-5.2109 1.4219c-3.2695 1.8945-5.2109 5.2578-5.2109 9.0469v203.31c0 3.7891 1.9414 7.1523 5.2109 9.0469 3.2695 1.8945 7.1523 1.8945 10.418 0l167.03-96.469v80.367c0 12.977 10.562 23.535 23.488 23.535 12.977 0 23.535-10.562 23.535-23.535l0.007812-189.25c0-12.977-10.512-23.488-23.488-23.488z"/>
</svg>
