<?xml version="1.0" encoding="UTF-8"?>
<svg width="752pt" height="752pt" version="1.1" viewBox="0 0 752 752" xmlns="http://www.w3.org/2000/svg">
 <g>
  <path d="m324.95 254.05h-12.172c-14.16 0-25.668 11.508-25.668 25.668v192.51c0 14.16 11.508 25.668 25.668 25.668h12.172c14.16 0 25.668-11.508 25.668-25.668v-192.46c0-14.16-11.508-25.715-25.668-25.715z"/>
  <path d="m439.27 254.05h-12.172c-14.16 0-25.668 11.508-25.668 25.668v192.51c0 14.16 11.508 25.668 25.668 25.668h12.172c14.16 0 25.668-11.508 25.668-25.668v-192.46c0-14.16-11.508-25.715-25.668-25.715z"/>
 </g>
</svg>
