<?xml version="1.0" encoding="UTF-8"?>
<svg width="752pt" height="752pt" version="1.1" viewBox="0 0 752 752" xmlns="http://www.w3.org/2000/svg">
 <path d="m376 510.97c-75.301 0-115.08-66.773-115.08-115.08h-47.359c0 78.613 65.355 162.44 162.44 162.44 97.086 0 162.44-84.297 162.44-162.44 0-78.613-65.355-162.44-162.44-162.44-37.887 0-70.562 13.262-95.664 31.73l0.94531-47.359-47.359-0.94531-1.8945 130.71 130.71-1.8945-0.94531-47.359-47.359 0.94531c17.051-10.891 37.887-18.469 61.566-18.469 75.301 0 115.08 66.773 115.08 115.08 0.007812 48.305-39.773 115.08-115.07 115.08z"/>
</svg>
